<?xml version="1.0" encoding="utf-8"?>
<!-- Generator: Adobe Illustrator 25.2.3, SVG Export Plug-In . SVG Version: 6.00 Build 0)  -->
<svg version="1.1" id="Cart" xmlns="http://www.w3.org/2000/svg" xmlns:xlink="http://www.w3.org/1999/xlink" x="0px" y="0px"
	 viewBox="0 0 16 16" style="enable-background:new 0 0 16 16;" xml:space="preserve">
<path class="st0" d="M14,12.6v-1.1H4.6l0.6-1.1l9.2-0.9l1.6-6H3.7L3,0.5H0v1h2.2l2.1,8.4L3,12.5V14c0,0.8,0.7,1.5,1.5,1.5
	S6,14.8,6,14s-0.7-1.5-1.5-1.5H12V14c0,0.8,0.7,1.5,1.5,1.5S15,14.8,15,14C15,13.3,14.6,12.8,14,12.6z M4,4.5h10.7l-1.1,4L5.2,9.4
	L4,4.5z"/>
</svg>
