<?xml version="1.0" encoding="utf-8"?>
<!-- Generator: Adobe Illustrator 25.2.3, SVG Export Plug-In . SVG Version: 6.00 Build 0)  -->
<svg version="1.1" id="圖層_1" xmlns="http://www.w3.org/2000/svg" xmlns:xlink="http://www.w3.org/1999/xlink" x="0px" y="0px"
	 viewBox="0 0 1707.5 374.4" style="enable-background:new 0 0 1707.5 374.4;" xml:space="preserve">
<style type="text/css">
	.st0{fill:#F5C53A;}
	.st1{fill:#7C4444;}
	.st2{fill:#7C4444;stroke:#794343;stroke-width:8;stroke-miterlimit:10;}
	.st3{fill:#F5C53A;stroke:#F5C53A;stroke-width:8;stroke-miterlimit:10;}
</style>
<polygon class="st0" points="397.9,177.6 358.7,93.4 321,58.4 258.7,22.1 209.4,21.5 147.9,27.3 77.9,66.4 32.5,133.9 23.3,233.4 
	44.1,292.7 114.1,347.3 177.1,353 238.7,335 259.4,308.8 288.7,300.3 353.3,278.8 397.9,261.9 410.2,229.6 "/>
<g>
	<path class="st1" d="M169.2,368.3c-89.3,0-162-72.7-162-162c0-53.3,20.7-103.3,58.4-141S153.3,7,206.6,7c33.2,0,64.3,6.8,92.5,20.3
		c26.8,12.8,50.4,31.3,70,54.9c38.1,45.7,59,108,59,175.5c0,6.8-5.5,12.3-12.3,12.3c-6.8,0-12.3-5.5-12.3-12.3
		c0-61.7-18.9-118.4-53.3-159.7c-36.1-43.4-85.8-66.3-143.6-66.3C159.9,31.6,116,49.8,83,82.8c-33,33-51.2,76.9-51.2,123.6
		c0,75.8,61.6,137.4,137.4,137.4c28.7,0,55.7-11.2,76-31.5c20.3-20.3,31.5-47.3,31.5-76c0-46-37.4-83.5-83.5-83.5
		c-35.5,0-64.3,28.9-64.3,64.3c0,27,22,49,49,49c20.2,0,36.7-16.5,36.7-36.7c0-6.8,5.5-12.3,12.3-12.3c6.8,0,12.3,5.5,12.3,12.3
		c0,33.8-27.5,61.3-61.3,61.3c-40.6,0-73.6-33-73.6-73.6c0-49,39.9-88.9,89-88.9c59.6,0,108.1,48.5,108.1,108.1
		c0,35.3-13.7,68.4-38.7,93.4C237.6,354.6,204.4,368.3,169.2,368.3z"/>
	<path class="st1" d="M266,319.1c-5.2,0-10-3.3-11.7-8.5c-2.1-6.5,1.4-13.4,7.9-15.5L412,245.9c6.5-2.1,13.4,1.4,15.5,7.9
		c2.1,6.5-1.4,13.4-7.9,15.5l-149.9,49.2C268.5,318.9,267.2,319.1,266,319.1z"/>
</g>
<g>
	<path class="st2" d="M525.9,237.1l33.1-2.9c1.6,13.3,5.2,24.1,10.9,32.6c5.7,8.5,14.6,15.4,26.7,20.6c12,5.2,25.6,7.9,40.7,7.9
		c13.4,0,25.2-2,35.4-6c10.2-4,17.9-9.4,22.9-16.4c5-6.9,7.5-14.5,7.5-22.7c0-8.3-2.4-15.6-7.2-21.8c-4.8-6.2-12.8-11.4-23.9-15.6
		c-7.1-2.8-22.8-7.1-47.2-12.9c-24.3-5.8-41.4-11.4-51.1-16.5c-12.6-6.6-22.1-14.8-28.3-24.7c-6.2-9.8-9.3-20.8-9.3-33
		c0-13.4,3.8-25.9,11.4-37.5c7.6-11.6,18.7-20.4,33.2-26.5c14.6-6,30.8-9,48.6-9c19.6,0,37,3.2,51.9,9.5c15,6.3,26.5,15.6,34.6,27.9
		c8.1,12.3,12.4,26.2,13,41.7l-33.6,2.5c-1.8-16.7-7.9-29.4-18.3-37.9c-10.4-8.6-25.8-12.8-46.2-12.8c-21.2,0-36.7,3.9-46.3,11.7
		c-9.7,7.8-14.5,17.1-14.5,28.1c0,9.5,3.4,17.3,10.3,23.5c6.7,6.1,24.4,12.4,52.9,18.9c28.5,6.4,48,12.1,58.6,16.9
		c15.4,7.1,26.8,16.1,34.1,27c7.3,10.9,11,23.5,11,37.7c0,14.1-4,27.4-12.1,39.8c-8.1,12.5-19.7,22.2-34.8,29.1
		c-15.1,6.9-32.1,10.4-51,10.4c-24,0-44.1-3.5-60.3-10.5c-16.2-7-28.9-17.5-38.1-31.5C531.2,270.7,526.4,254.8,525.9,237.1z"/>
	<path class="st2" d="M816.8,322.2V57.3h32.5v264.9H816.8z"/>
	<path class="st3" d="M924.6,226.2c0-35.5,9.9-61.9,29.6-79c16.5-14.2,36.6-21.3,60.3-21.3c26.4,0,47.9,8.6,64.7,25.9
		c16.7,17.3,25.1,41.2,25.1,71.6c0,24.7-3.7,44.1-11.1,58.3c-7.4,14.2-18.2,25.1-32.3,33c-14.2,7.8-29.6,11.7-46.3,11.7
		c-26.9,0-48.6-8.6-65.1-25.8C932.9,283.5,924.6,258.6,924.6,226.2z M958.1,226.2c0,24.6,5.4,43,16.1,55.2
		c10.7,12.2,24.2,18.3,40.5,18.3c16.1,0,29.6-6.1,40.3-18.4c10.7-12.3,16.1-31,16.1-56.2c0-23.7-5.4-41.7-16.2-53.9
		c-10.8-12.2-24.2-18.3-40.2-18.3c-16.3,0-29.8,6.1-40.5,18.2C963.4,183.3,958.1,201.7,958.1,226.2z"/>
	<path class="st2" d="M1182.6,322.2V57.3h52.8l62.7,187.6c5.8,17.5,10,30.5,12.6,39.2c3-9.6,7.7-23.8,14.1-42.5l63.4-184.3h47.2
		v264.9h-33.8V100.5l-77,221.7H1293l-76.6-225.5v225.5H1182.6z"/>
	<path class="st3" d="M1512.7,226.2c0-35.5,9.9-61.9,29.6-79c16.5-14.2,36.6-21.3,60.3-21.3c26.4,0,47.9,8.6,64.7,25.9
		c16.7,17.3,25.1,41.2,25.1,71.6c0,24.7-3.7,44.1-11.1,58.3c-7.4,14.2-18.2,25.1-32.3,33c-14.2,7.8-29.6,11.7-46.3,11.7
		c-26.9,0-48.6-8.6-65.1-25.8C1521,283.5,1512.7,258.6,1512.7,226.2z M1546.1,226.2c0,24.6,5.4,43,16.1,55.2
		c10.7,12.2,24.2,18.3,40.5,18.3c16.1,0,29.6-6.1,40.3-18.4c10.7-12.3,16.1-31,16.1-56.2c0-23.7-5.4-41.7-16.2-53.9
		c-10.8-12.2-24.2-18.3-40.2-18.3c-16.3,0-29.8,6.1-40.5,18.2C1551.5,183.3,1546.1,201.7,1546.1,226.2z"/>
</g>
</svg>
