<?xml version="1.0" encoding="utf-8"?>
<!-- Generator: Adobe Illustrator 25.2.3, SVG Export Plug-In . SVG Version: 6.00 Build 0)  -->
<svg version="1.1" id="圖層_1" xmlns="http://www.w3.org/2000/svg" xmlns:xlink="http://www.w3.org/1999/xlink" x="0px" y="0px"
	 viewBox="0 0 364.8 313.2" style="enable-background:new 0 0 364.8 313.2;" xml:space="preserve">
<style type="text/css">
	.st0{fill:#F5C63B;}
	.st1{fill:#7C4444;}
</style>
<polygon class="st0" points="338.6,147.9 304.6,74.9 271.9,44.6 217.9,13.1 175.3,12.6 121.9,17.6 61.3,51.6 22,110 14,196.3 
	32,247.6 92.6,294.9 147.3,299.9 200.6,284.3 218.6,261.6 243.9,254.3 299.9,235.6 338.6,220.9 349.3,192.9 "/>
<g>
	<path class="st1" d="M140.4,313.2C63,313.2,0,250.2,0,172.8c0-46.2,18-89.6,50.6-122.2S126.7,0,172.8,0c28.7,0,55.7,5.9,80.2,17.6
		c23.2,11.1,43.6,27.1,60.7,47.6c33,39.6,51.2,93.6,51.2,152.1c0,5.9-4.8,10.7-10.7,10.7s-10.7-4.8-10.7-10.7
		c0-53.5-16.4-102.6-46.2-138.4C266,41.2,222.9,21.3,172.8,21.3c-40.5,0-78.5,15.8-107.1,44.4c-28.6,28.6-44.4,66.7-44.4,107.1
		c0,65.7,53.4,119.1,119,119.1c24.9,0,48.2-9.7,65.8-27.3c17.6-17.6,27.3-41,27.3-65.8c0-39.9-32.5-72.3-72.3-72.3
		c-30.7,0-55.7,25-55.7,55.7c0,23.4,19,42.5,42.5,42.5c17.5,0,31.8-14.3,31.8-31.8c0-5.9,4.8-10.7,10.7-10.7s10.7,4.8,10.7,10.7
		c0,29.3-23.9,53.2-53.2,53.2c-35.2,0-63.8-28.6-63.8-63.8c0-42.5,34.6-77.1,77.1-77.1c51.7,0,93.7,42,93.7,93.7
		c0,30.6-11.9,59.3-33.5,80.9C199.7,301.3,170.9,313.2,140.4,313.2z"/>
	<path class="st1" d="M224.3,270.5c-4.5,0-8.7-2.8-10.1-7.3c-1.8-5.6,1.2-11.6,6.8-13.4l129.9-42.7c5.6-1.8,11.6,1.2,13.5,6.8
		c1.8,5.6-1.2,11.6-6.8,13.5L227.6,270C226.5,270.3,225.4,270.5,224.3,270.5z"/>
</g>
</svg>
